# xmcd
#
# Track frame offsets:
#	182
#	18512
#	39122
#	55517
#	68862
#	88207
#	103175
#	120172
#	135792
#	144082
#	159780
#	173962
#
# Disc length: 2545 seconds
#
# Revision: 2
# Processed by: cddbd v1.5.1PL0 Copyright (c) Steve Scherf et al.
# Submitted via: audiograbber 1.83.01
#
DISCID=8709ef0c
DTITLE=Steve WARINER - No More Mr. Nice Guy
DYEAR=1996
DGENRE=Country
TTITLE0=No More Mr. Nice Guy
TTITLE1=Big Hero, Little Hero
TTITLE2=Prelude - Practice Your Scales Somewhere Else
TTITLE3=The Theme
TTITLE4=Forever Loving You
TTITLE5=Next March
TTITLE6=If You Can't Say Something Good
TTITLE7=Hap Towne Breakdowne
TTITLE8=For Chester B.
TTITLE9=The Brickyard Boogie
TTITLE10=Don't Call Me Ray
TTITLE11=Guitar Talk
EXTD=
EXTT0=
EXTT1=
EXTT2=
EXTT3=
EXTT4=
EXTT5=
EXTT6=
EXTT7=
EXTT8=
EXTT9=
EXTT10=
EXTT11=
PLAYORDER=
